<mxfile host="app.diagrams.net" modified="2021-01-13T08:05:52.244Z" agent="5.0 (Macintosh; Intel Mac OS X 10_14_6) AppleWebKit/537.36 (KHTML, like Gecko) Chrome/87.0.4280.141 Safari/537.36" etag="8ULft7giyVzlPFXk5GZP" version="14.1.9" type="github">
  <diagram id="zX0LKrRPOxZzMG7xesd7" name="Page-1">
    <mxGraphModel dx="946" dy="544" grid="1" gridSize="10" guides="1" tooltips="1" connect="1" arrows="1" fold="1" page="1" pageScale="1" pageWidth="827" pageHeight="1169" math="0" shadow="0">
      <root>
        <mxCell id="0" />
        <mxCell id="1" parent="0" />
        <mxCell id="Jr7bhlfd0MxnDkII8DDK-1" value="" style="rounded=0;whiteSpace=wrap;html=1;" parent="1" vertex="1">
          <mxGeometry x="130" y="430" width="140" height="100" as="geometry" />
        </mxCell>
        <mxCell id="Jr7bhlfd0MxnDkII8DDK-2" value="" style="rounded=0;whiteSpace=wrap;html=1;" parent="1" vertex="1">
          <mxGeometry x="380" y="430" width="140" height="100" as="geometry" />
        </mxCell>
        <mxCell id="Jr7bhlfd0MxnDkII8DDK-3" value="EMR Openldap" style="rounded=0;whiteSpace=wrap;html=1;" parent="1" vertex="1">
          <mxGeometry x="130" y="600" width="620" height="35" as="geometry" />
        </mxCell>
        <mxCell id="Jr7bhlfd0MxnDkII8DDK-4" value="HiveServer2" style="rounded=1;whiteSpace=wrap;html=1;" parent="1" vertex="1">
          <mxGeometry x="140" y="450" width="120" height="20" as="geometry" />
        </mxCell>
        <mxCell id="Jr7bhlfd0MxnDkII8DDK-8" value="EMR" style="text;html=1;strokeColor=none;fillColor=none;align=center;verticalAlign=middle;whiteSpace=wrap;rounded=0;" parent="1" vertex="1">
          <mxGeometry x="182" y="410" width="40" height="20" as="geometry" />
        </mxCell>
        <mxCell id="Jr7bhlfd0MxnDkII8DDK-10" value="Presto" style="rounded=1;whiteSpace=wrap;html=1;" parent="1" vertex="1">
          <mxGeometry x="390" y="450" width="120" height="20" as="geometry" />
        </mxCell>
        <mxCell id="Jr7bhlfd0MxnDkII8DDK-12" value="" style="rounded=0;whiteSpace=wrap;html=1;" parent="1" vertex="1">
          <mxGeometry x="610" y="430" width="140" height="100" as="geometry" />
        </mxCell>
        <mxCell id="Jr7bhlfd0MxnDkII8DDK-13" value="Spark" style="rounded=1;whiteSpace=wrap;html=1;" parent="1" vertex="1">
          <mxGeometry x="620" y="450" width="120" height="20" as="geometry" />
        </mxCell>
        <mxCell id="Jr7bhlfd0MxnDkII8DDK-14" value="Ranger Metastore" style="rounded=0;whiteSpace=wrap;html=1;" parent="1" vertex="1">
          <mxGeometry x="130" y="550" width="620" height="35" as="geometry" />
        </mxCell>
        <mxCell id="Jr7bhlfd0MxnDkII8DDK-15" value="Ranger Hive Plugin" style="rounded=1;whiteSpace=wrap;html=1;" parent="1" vertex="1">
          <mxGeometry x="140" y="490" width="120" height="20" as="geometry" />
        </mxCell>
        <mxCell id="Jr7bhlfd0MxnDkII8DDK-17" value="Ranger Presto Plugin" style="rounded=1;whiteSpace=wrap;html=1;" parent="1" vertex="1">
          <mxGeometry x="390" y="490" width="120" height="20" as="geometry" />
        </mxCell>
        <mxCell id="Jr7bhlfd0MxnDkII8DDK-18" value="Ranger Spark Plugin" style="rounded=1;whiteSpace=wrap;html=1;" parent="1" vertex="1">
          <mxGeometry x="620" y="490" width="120" height="20" as="geometry" />
        </mxCell>
        <mxCell id="Jr7bhlfd0MxnDkII8DDK-19" value="EMR" style="text;html=1;strokeColor=none;fillColor=none;align=center;verticalAlign=middle;whiteSpace=wrap;rounded=0;" parent="1" vertex="1">
          <mxGeometry x="430" y="410" width="40" height="20" as="geometry" />
        </mxCell>
        <mxCell id="Jr7bhlfd0MxnDkII8DDK-20" value="EMR" style="text;html=1;strokeColor=none;fillColor=none;align=center;verticalAlign=middle;whiteSpace=wrap;rounded=0;" parent="1" vertex="1">
          <mxGeometry x="660" y="410" width="40" height="20" as="geometry" />
        </mxCell>
        <mxCell id="mHg9zGW-OZEeAyedAUSI-1" value="公司Ldap或者AD" style="rounded=0;whiteSpace=wrap;html=1;" parent="1" vertex="1">
          <mxGeometry x="131" y="682" width="620" height="35" as="geometry" />
        </mxCell>
        <mxCell id="CAOQkmQ9XKD6gjUw4Kz--1" value="" style="shape=singleArrow;direction=north;whiteSpace=wrap;html=1;" vertex="1" parent="1">
          <mxGeometry x="411" y="640" width="60" height="40" as="geometry" />
        </mxCell>
      </root>
    </mxGraphModel>
  </diagram>
</mxfile>
